<svg viewBox="0 0 30 30" xmlns="http://www.w3.org/2000/svg" class="twr-icon"><path d="M13.5 17.806a3.501 3.501 0 0 0 0 6.325v.838a1.5 1.5 0 0 0 3 0v-.838a3.501 3.501 0 0 0 0-6.325v-5.837a1.5 1.5 0 0 0-3 0v5.837Zm1.5 1.663a1.5 1.5 0 1 1-.001 3.001A1.5 1.5 0 0 1 15 19.47Z" class="twr-icon-needle" fill="#09A8DD"/><path d="m26.726 24.115-1.857-1.072a1 1 0 0 0-1 1.732l2.755 1.591c.153.088.319.131.484.134h.039a1 1 0 0 0 .843-.499A14.922 14.922 0 0 0 30 18.5c0-8.279-6.721-15-15-15s-15 6.721-15 15c0 2.732.732 5.294 2.01 7.501a.999.999 0 0 0 .855.499h.015a.997.997 0 0 0 .496-.134l2.755-1.591a1 1 0 0 0-1-1.732l-1.857 1.072A12.895 12.895 0 0 1 2.038 19.5h2.144a1 1 0 0 0 0-2H2.038c.125-1.642.556-3.2 1.236-4.615l1.857 1.072a1 1 0 0 0 1-1.732l-1.855-1.071a13.072 13.072 0 0 1 3.378-3.378l1.071 1.855a1 1 0 0 0 1.732-1L9.385 6.774A12.901 12.901 0 0 1 14 5.538v2.144a1 1 0 0 0 2 0V5.538c1.642.125 3.2.556 4.615 1.236l-1.072 1.857a1 1 0 0 0 1.732 1l1.071-1.855a13.072 13.072 0 0 1 3.378 3.378l-1.855 1.071a1 1 0 0 0 1 1.732l1.857-1.072a12.901 12.901 0 0 1 1.236 4.615h-2.144a1 1 0 0 0 0 2h2.144a12.895 12.895 0 0 1-1.236 4.615Z" class="twr-icon-outline" fill="#2E5760"/></svg>