<svg viewBox="0 0 30 30" xmlns="http://www.w3.org/2000/svg" class="twr-icon">
  <path
    d="M20.261 1a14.557 14.557 0 0 1 1.231 5.876c0 8.067-6.549 14.616-14.616 14.616-2.09 0-4.078-.44-5.876-1.231C3.264 25.405 8.408 29 14.384 29 22.451 29 29 22.451 29 14.384 29 8.408 25.405 3.264 20.261 1Z"
    class="twr-icon-moon" fill="#F8D574" />
  <path
    d="M20.664.085a1 1 0 0 0-1.319 1.318 13.542 13.542 0 0 1 1.147 5.473c0 7.515-6.101 13.616-13.616 13.616-1.946 0-3.798-.409-5.473-1.147a1 1 0 0 0-1.318 1.319C2.504 26.16 7.999 30 14.384 30 23.003 30 30 23.003 30 14.384c0-6.385-3.84-11.88-9.336-14.299Zm1.373 3.039C25.636 5.576 28 9.706 28 14.384 28 21.899 21.899 28 14.384 28c-4.678 0-8.808-2.365-11.26-5.963 1.202.297 2.459.455 3.752.455 8.619 0 15.616-6.997 15.616-15.616 0-1.293-.158-2.55-.455-3.751v-.001Z"
    class="twr-icon-outline" fill="#2E5760" />
</svg>