<svg viewBox="0 0 30 30" xmlns="http://www.w3.org/2000/svg" class="twr-icon"><path d="M7.836 11.263A6.679 6.679 0 0 0 0 17.838a6.68 6.68 0 0 0 6.676 6.676h15.892A7.436 7.436 0 0 0 30 17.081a7.435 7.435 0 0 0-7.712-7.427 7.813 7.813 0 0 0-6.91-4.168c-3.607 0-6.646 2.452-7.542 5.777Zm.436 2.179a1 1 0 0 0 1.335-.824 5.814 5.814 0 0 1 5.771-5.132 5.819 5.819 0 0 1 5.377 3.604.998.998 0 0 0 1.062.61A5.435 5.435 0 0 1 28 17.081a5.435 5.435 0 0 1-5.432 5.433H6.676A4.679 4.679 0 0 1 2 17.838a4.678 4.678 0 0 1 6.272-4.396Z" class="twr-icon-outline" fill="#2E5760"/></svg>