<svg viewBox="0 0 30 30" xmlns="http://www.w3.org/2000/svg" class="twr-icon"><path d="M9.302 20.542h13.901c1.822 0 3.307-1.492 3.307-3.336 0-1.845-1.485-3.336-3.307-3.336a3.28 3.28 0 0 0-2.352.991 1 1 0 1 0 1.428 1.4 1.29 1.29 0 0 1 .924-.391c.725 0 1.307.602 1.307 1.336 0 .734-.582 1.336-1.307 1.336H9.302a1 1 0 0 0 0 2Zm3.53 3.332H21c.725 0 1.308.602 1.308 1.336 0 .734-.583 1.336-1.308 1.336-.361 0-.688-.15-.923-.391a1.001 1.001 0 0 0-1.429 1.4c.6.612 1.433.991 2.352.991 1.822 0 3.308-1.491 3.308-3.336 0-1.845-1.486-3.336-3.308-3.336h-8.168a1 1 0 0 0 0 2Z" class="twr-icon-outline" fill="#2E5760"/><path d="m28.32 16.821.052.002.071-.003a.998.998 0 0 0 .83-.565 7.436 7.436 0 0 0-6.985-10.634 7.814 7.814 0 0 0-6.91-4.167c-3.607 0-6.646 2.451-7.542 5.776A6.678 6.678 0 0 0 0 13.805a6.681 6.681 0 0 0 6.07 6.649 1 1 0 0 0 .18-1.992A4.679 4.679 0 0 1 2 13.805a4.678 4.678 0 0 1 6.272-4.396 1 1 0 0 0 1.335-.824 5.814 5.814 0 0 1 5.771-5.131 5.817 5.817 0 0 1 5.377 3.604 1 1 0 0 0 1.062.61 5.435 5.435 0 0 1 5.653 7.722l.016.025c-.073.083-.114.241-.114.408a1 1 0 0 0 .948.998Z" class="twr-icon-outline" fill="#2E5760"/></svg>