<svg viewBox="0 0 30 30" xmlns="http://www.w3.org/2000/svg" class="twr-icon"><path d="M3.861 16.894a7.481 7.481 0 0 0-2.5 5.589c0 4.139 3.36 7.5 7.5 7.5 4.139 0 7.5-3.361 7.5-7.5a7.485 7.485 0 0 0-2.5-5.589V5.017c0-2.759-2.241-5-5-5-2.76 0-5 2.241-5 5v11.877Zm1.616 1.254a1 1 0 0 0 .384-.787V5.017a3.001 3.001 0 0 1 6 0v12.344c0 .307.141.598.383.787a5.493 5.493 0 0 1 2.117 4.335c0 3.035-2.465 5.5-5.5 5.5a5.503 5.503 0 0 1-5.5-5.5c0-1.76.828-3.327 2.116-4.335Z" class="twr-icon-outline" fill="#2E5760"/><path d="M7.861 19.145V15a1 1 0 0 1 2 0v4.145a3.504 3.504 0 0 1 2.5 3.355c0 1.932-1.569 3.5-3.5 3.5a3.501 3.501 0 0 1-1-6.855Z" class="twr-icon-low-temp" fill="#0590E1" fill="#0590E1"/><path d="M18.969 2.172c1.308 1.281 2.67 2.923 2.67 4.397a2.67 2.67 0 0 1-5.34 0c0-1.474 1.362-3.116 2.67-4.397ZM24.969 6.425c1.308 1.281 2.67 2.924 2.67 4.398a2.671 2.671 0 0 1-2.67 2.67 2.672 2.672 0 0 1-2.67-2.67c0-1.474 1.362-3.117 2.67-4.398ZM18.969 10.679c1.308 1.281 2.67 2.924 2.67 4.397a2.67 2.67 0 0 1-5.34 0c0-1.473 1.362-3.116 2.67-4.397Z" class="twr-icon-rain" fill="#09A8DD"/></svg>