<svg viewBox="0 0 30 30" xmlns="http://www.w3.org/2000/svg" class="twr-icon"><path d="M8.148 22.781h4.517a1 1 0 0 0 0-2H8.148a1 1 0 0 0 0 2Zm7.579 0h7.142a1 1 0 0 0 0-2h-7.142a1 1 0 0 0 0 2Zm-9.329 3.281h10.204a1 1 0 0 0 0-2H6.398a1.001 1.001 0 0 0 0 2Zm8.75 3.282h8.454a1 1 0 0 0 0-2h-8.454a1 1 0 0 0 0 2Zm-5.977 0h2.767a1.001 1.001 0 0 0 0-2H9.171a1 1 0 0 0 0 2Zm10.127-3.282h2.767a1 1 0 0 0 0-2h-2.767a1.001 1.001 0 0 0 0 2ZM7.836 6.433A6.679 6.679 0 0 0 0 13.008a6.678 6.678 0 0 0 6.676 6.675h15.892A7.435 7.435 0 0 0 30 12.251a7.436 7.436 0 0 0-7.712-7.427 7.813 7.813 0 0 0-6.91-4.168c-3.607 0-6.646 2.451-7.542 5.777Zm.436 2.179a1 1 0 0 0 1.335-.824 5.814 5.814 0 0 1 5.771-5.132 5.817 5.817 0 0 1 5.377 3.604 1 1 0 0 0 1.062.61A5.435 5.435 0 0 1 28 12.251a5.435 5.435 0 0 1-5.432 5.432H6.676A4.678 4.678 0 0 1 2 13.008a4.678 4.678 0 0 1 6.272-4.396Z" class="twr-icon-outline" fill="#2E5760"/></svg>