<svg viewBox="0 0 30 30" xmlns="http://www.w3.org/2000/svg" class="twr-icon"><path d="M17.744 26.472c-.843-6.698.457-14.066 3.416-22.944-8.079 4.258-10.29 13.794-9.814 22.944" class="twr-icon-plant" fill="#92DBAE"/><path d="M6.613 26.472c-.536-5.109-2.171-9.336-5.609-14.928 5.09 1.531 11.068 8.591 10.812 14.928" class="twr-icon-plant" fill="#92DBAE"/><path d="M12.085 26.472c-.703-6.698-2.846-12.238-7.353-19.569 6.673 2.008 13.244 11.263 12.908 19.569" class="twr-icon-plant" fill="#92DBAE"/><path d="M23.471 26.472c.703-6.698 1.019-12.238 5.525-19.569-6.673 2.008-11.556 11.263-11.221 19.569" class="twr-icon-plant" fill="#92DBAE"/><path d="M12.742 11.302c1.643-3.626 4.202-6.683 7.952-8.659a.999.999 0 0 1 1.415 1.201c-1.38 4.139-2.397 7.943-2.995 11.501a22.713 22.713 0 0 1 2.143-3.664c2.014-2.788 4.587-4.874 7.451-5.736a1 1 0 0 1 1.14 1.482c-4.158 6.764-4.649 11.976-5.268 18.045h1.424a1 1 0 0 1 0 2H4.004a1 1 0 0 1 0-2h1.479c-.636-4.486-2.239-8.375-5.331-13.405a.999.999 0 0 1 1.14-1.481c2.268.682 4.713 2.378 6.761 4.627-1.074-2.442-2.447-4.98-4.173-7.786a1.002 1.002 0 0 1 1.14-1.482c2.722.819 5.44 2.763 7.722 5.357Zm9.827 14.17c.576-5.587 1.035-10.45 4.01-16.306-1.38.929-2.627 2.199-3.701 3.686-2.511 3.476-4.076 8.14-4.118 12.62h3.809ZM10.306 22.86c-.554-1.779-1.513-3.512-2.686-5.047-1.2-1.571-2.627-2.941-4.098-3.931 2.242 4.107 3.455 7.62 3.98 11.59h2.802a43.743 43.743 0 0 1 .002-2.612Zm6.342 2.612c-.095-3.658-1.534-7.437-3.662-10.587-1.614-2.388-3.626-4.423-5.772-5.749 3.323 5.868 5.059 10.743 5.763 16.336h3.671Zm.128-7.865c.42-3.64 1.299-7.52 2.586-11.737-2.414 1.874-4.099 4.361-5.218 7.185a25.084 25.084 0 0 1 2.632 4.552Z" class="twr-icon-outline" fill="#2E5760"/></svg>