<svg viewBox="0 0 30 30" xmlns="http://www.w3.org/2000/svg" class="twr-icon"><circle cx="11.223" cy="22.267" r="2.734" class="twr-icon-hail" fill="#09A8DD"/><circle cx="18.687" cy="22.267" r="2.734" class="twr-icon-hail" fill="#09A8DD"/><path d="M5.664 20.916A4.679 4.679 0 0 1 2 16.35a4.678 4.678 0 0 1 6.272-4.396 1 1 0 0 0 1.335-.824 5.814 5.814 0 0 1 5.771-5.131 5.817 5.817 0 0 1 5.377 3.604 1 1 0 0 0 1.062.61A5.435 5.435 0 0 1 28 15.594a5.438 5.438 0 0 1-3.845 5.196 1 1 0 0 0 .585 1.913A7.44 7.44 0 0 0 30 15.594a7.436 7.436 0 0 0-7.712-7.428 7.814 7.814 0 0 0-6.91-4.167c-3.607 0-6.646 2.451-7.542 5.776A6.678 6.678 0 0 0 0 16.35a6.682 6.682 0 0 0 5.232 6.519 1 1 0 1 0 .432-1.953Z" class="twr-icon-outline" fill="#2E5760"/></svg>