<svg viewBox="0 0 30 30" xmlns="http://www.w3.org/2000/svg" class="twr-icon"><path d="M7.398 2.5c2.664 2.609 5.439 5.955 5.439 8.957a5.441 5.441 0 0 1-5.439 5.438 5.441 5.441 0 0 1-5.439-5.438c0-3.002 2.775-6.348 5.439-8.957ZM22.602 2.5c2.664 2.609 5.439 5.955 5.439 8.957a5.441 5.441 0 0 1-5.439 5.438 5.441 5.441 0 0 1-5.439-5.438c0-3.002 2.775-6.348 5.439-8.957ZM13.5 21.607l-2.536-.824a1.502 1.502 0 0 0-1.891.963 1.502 1.502 0 0 0 .963 1.891l2.537.824-1.568 2.157a1.502 1.502 0 0 0 .332 2.096c.67.486 1.609.337 2.095-.332L15 26.224l1.568 2.158a1.502 1.502 0 0 0 2.095.332c.67-.487.818-1.426.332-2.096l-1.568-2.157 2.537-.824a1.502 1.502 0 0 0 .963-1.891 1.502 1.502 0 0 0-1.891-.963l-2.536.824V18.94a1.501 1.501 0 0 0-3 0v2.667Z" class="twr-icon-sleet" fill="#09A8DD"/></svg>