<svg viewBox="0 0 30 30" xmlns="http://www.w3.org/2000/svg" class="twr-icon"><path d="m10.582 18.288-1.643-.534a.75.75 0 0 0-.463 1.427l1.643.534-1.016 1.398a.75.75 0 1 0 1.214.881l1.015-1.397 1.016 1.397a.749.749 0 1 0 1.213-.881l-1.015-1.398 1.643-.534a.75.75 0 0 0-.463-1.427l-1.644.534v-1.727a.75.75 0 0 0-1.5 0v1.727ZM17.937 18.288l-1.643-.534a.75.75 0 0 0-.464 1.427l1.644.534-1.016 1.398a.75.75 0 0 0 1.213.881l1.016-1.397 1.016 1.397a.749.749 0 1 0 1.213-.881l-1.015-1.398 1.643-.534a.75.75 0 0 0-.464-1.427l-1.643.534v-1.727a.75.75 0 0 0-1.5 0v1.727ZM14.314 25.064l-1.643-.534a.75.75 0 0 0-.463 1.427l1.643.534-1.016 1.398a.75.75 0 1 0 1.214.881l1.015-1.397 1.016 1.397a.75.75 0 1 0 1.213-.881l-1.015-1.398 1.643-.534a.75.75 0 0 0-.463-1.427l-1.644.534v-1.727a.75.75 0 0 0-1.5 0v1.727Z" class="twr-icon-snow" fill="#09A8DD"/><path d="M5.33 17.501A4.682 4.682 0 0 1 2 13.022a4.678 4.678 0 0 1 6.272-4.396 1 1 0 0 0 1.335-.824 5.814 5.814 0 0 1 5.771-5.132 5.817 5.817 0 0 1 5.377 3.604.998.998 0 0 0 1.062.61A5.435 5.435 0 0 1 28 12.265a5.44 5.44 0 0 1-3.315 5.004 1 1 0 0 0 .781 1.841A7.438 7.438 0 0 0 30 12.265a7.435 7.435 0 0 0-7.712-7.427A7.813 7.813 0 0 0 15.378.67c-3.607 0-6.646 2.451-7.542 5.777A6.679 6.679 0 0 0 0 13.022a6.682 6.682 0 0 0 4.755 6.394 1 1 0 1 0 .575-1.915Z" class="twr-icon-outline" fill="#2E5760"/></svg>