<svg viewBox="0 0 30 30" xmlns="http://www.w3.org/2000/svg" class="twr-icon"><path d="m6 6.637-2.536-.824a1.502 1.502 0 0 0-1.891.963 1.501 1.501 0 0 0 .963 1.89l2.537.824-1.568 2.158a1.5 1.5 0 0 0 2.427 1.763L7.5 11.254l1.568 2.157a1.5 1.5 0 1 0 2.427-1.763L9.927 9.49l2.537-.824a1.501 1.501 0 0 0 .963-1.89 1.502 1.502 0 0 0-1.891-.963L9 6.637V3.97a1.5 1.5 0 0 0-3 0v2.667ZM21 6.637l-2.536-.824a1.502 1.502 0 0 0-1.891.963 1.501 1.501 0 0 0 .963 1.89l2.537.824-1.568 2.158a1.5 1.5 0 0 0 2.427 1.763l1.568-2.157 1.568 2.157a1.5 1.5 0 1 0 2.427-1.763L24.927 9.49l2.537-.824a1.501 1.501 0 0 0 .963-1.89 1.502 1.502 0 0 0-1.891-.963L24 6.637V3.97a1.5 1.5 0 0 0-3 0v2.667ZM13.5 20.137l-2.536-.824a1.502 1.502 0 0 0-1.891.963 1.501 1.501 0 0 0 .963 1.89l2.537.824-1.568 2.158a1.5 1.5 0 0 0 2.427 1.763L15 24.754l1.568 2.157a1.5 1.5 0 1 0 2.427-1.763l-1.568-2.158 2.537-.824a1.501 1.501 0 0 0 .963-1.89 1.502 1.502 0 0 0-1.891-.963l-2.536.824V17.47a1.5 1.5 0 0 0-3 0v2.667Z" class="twr-icon-snow" fill="#09A8DD"/></svg>