<svg viewBox="0 0 30 30" xmlns="http://www.w3.org/2000/svg" class="twr-icon"><path d="M11.268 14.874c1.308 1.28 2.67 2.923 2.67 4.397a2.671 2.671 0 0 1-2.67 2.67 2.671 2.671 0 0 1-2.67-2.67c0-1.474 1.362-3.117 2.67-4.397Zm7.464 0c1.308 1.28 2.67 2.923 2.67 4.397a2.671 2.671 0 0 1-2.67 2.67 2.671 2.671 0 0 1-2.67-2.67c0-1.474 1.362-3.117 2.67-4.397ZM15 21.553c1.308 1.28 2.67 2.923 2.67 4.397A2.671 2.671 0 0 1 15 28.62a2.671 2.671 0 0 1-2.67-2.67c0-1.474 1.362-3.117 2.67-4.397Z" class="twr-icon-rain" fill="#09A8DD"/><path d="M5.819 17.329A4.679 4.679 0 0 1 2 12.732a4.678 4.678 0 0 1 6.272-4.396 1.001 1.001 0 0 0 1.335-.824 5.814 5.814 0 0 1 5.771-5.132 5.817 5.817 0 0 1 5.377 3.604 1 1 0 0 0 1.062.61A5.435 5.435 0 0 1 28 11.975a5.438 5.438 0 0 1-3.944 5.226 1 1 0 1 0 .548 1.923A7.44 7.44 0 0 0 30 11.975a7.436 7.436 0 0 0-7.712-7.427A7.813 7.813 0 0 0 15.378.38c-3.607 0-6.646 2.451-7.542 5.777A6.679 6.679 0 0 0 0 12.732a6.68 6.68 0 0 0 5.455 6.563 1 1 0 1 0 .364-1.966Z" class="twr-icon-outline" fill="#2E5760"/></svg>