<svg viewBox="0 0 30 30" xmlns="http://www.w3.org/2000/svg" class="twr-icon"><circle cx="11.223" cy="18.945" r="2.734" class="twr-icon-hail" fill="#09A8DD"/><circle cx="18.687" cy="18.945" r="2.734" class="twr-icon-hail" fill="#09A8DD"/><circle cx="14.955" cy="25.721" r="2.734" class="twr-icon-hail" fill="#09A8DD"/><path d="M5.664 17.461A4.679 4.679 0 0 1 2 12.896 4.678 4.678 0 0 1 8.272 8.5a1 1 0 0 0 1.335-.824 5.814 5.814 0 0 1 5.771-5.132 5.817 5.817 0 0 1 5.377 3.604 1 1 0 0 0 1.062.61A5.435 5.435 0 0 1 28 12.139a5.437 5.437 0 0 1-3.845 5.196 1.001 1.001 0 0 0 .585 1.913A7.44 7.44 0 0 0 30 12.139a7.436 7.436 0 0 0-7.712-7.427 7.813 7.813 0 0 0-6.91-4.168c-3.607 0-6.646 2.451-7.542 5.777A6.679 6.679 0 0 0 0 12.896a6.68 6.68 0 0 0 5.232 6.518 1 1 0 1 0 .432-1.953Z" class="twr-icon-outline" fill="#2E5760"/></svg>