<svg viewBox="0 0 30 30" xmlns="http://www.w3.org/2000/svg" class="twr-icon"><path d="M7.398 1c2.664 2.609 5.439 5.955 5.439 8.957a5.441 5.441 0 0 1-5.439 5.438 5.441 5.441 0 0 1-5.439-5.438c0-3.002 2.775-6.348 5.439-8.957ZM22.602 1c2.664 2.609 5.439 5.955 5.439 8.957a5.441 5.441 0 0 1-5.439 5.438 5.441 5.441 0 0 1-5.439-5.438c0-3.002 2.775-6.348 5.439-8.957ZM15 14.605c2.664 2.608 5.439 5.955 5.439 8.956A5.441 5.441 0 0 1 15 29a5.441 5.441 0 0 1-5.439-5.439c0-3.001 2.775-6.348 5.439-8.956Z" class="twr-icon-rain" fill="#09A8DD"/></svg>