<svg viewBox="0 0 30 30" xmlns="http://www.w3.org/2000/svg" class="twr-icon"><path d="M6.245 11.978c.199-.055 15.792-.088 17.174-.088.101 0 .201.009.302.024 1.15 2.19 1.858 4.393 1.858 6.507C25.579 24.26 20.838 29 15 29 9.162 29 4.421 24.26 4.421 18.421c0-2.093.694-4.273 1.824-6.443Z" class="twr-icon-rain" fill="#09A8DD"/><path d="M15.7.286a1 1 0 0 0-1.4 0c-3.174 3.108-6.422 6.75-8.517 10.449-1.461 2.579-2.362 5.193-2.362 7.686C3.421 24.812 8.61 30 15 30c6.39 0 11.579-5.188 11.579-11.579 0-2.493-.901-5.107-2.362-7.686C22.122 7.036 18.874 3.394 15.7.286ZM15 2.407c2.815 2.821 5.622 6.039 7.477 9.314 1.275 2.252 2.102 4.523 2.102 6.7C24.579 23.708 20.287 28 15 28c-5.287 0-9.579-4.292-9.579-9.579 0-2.177.827-4.448 2.102-6.7C9.378 8.446 12.185 5.228 15 2.407Z" class="twr-icon-outline" fill="#2E5760"/></svg>