<svg viewBox="0 0 30 30" xmlns="http://www.w3.org/2000/svg" class="twr-icon"><path d="M18.932 12.375h-5.803L8 21.45h4.28L10.421 29l9.829-10.973h-4.72l3.402-5.652Z" class="twr-icon-lightning" fill="#F8D574"/><path d="M19.789 12.891a1.001 1.001 0 0 0-.857-1.516h-5.803a.999.999 0 0 0-.87.508l-5.13 9.075A1 1 0 0 0 8 22.45h3.004L9.45 28.761a.999.999 0 0 0 1.716.906l9.829-10.973a1 1 0 0 0-.745-1.667h-2.951l2.49-4.136Zm-2.626.484-2.489 4.136a.999.999 0 0 0 .856 1.516h2.482l-5.662 6.32.901-3.658a.997.997 0 0 0-.971-1.239H9.714l3.999-7.075h3.45Z" class="twr-icon-outline" fill="#2E5760"/><path d="M6.919 17.027h-.243A4.678 4.678 0 0 1 2 12.351a4.678 4.678 0 0 1 6.272-4.396 1 1 0 0 0 1.335-.824A5.814 5.814 0 0 1 15.378 2a5.817 5.817 0 0 1 5.377 3.604 1 1 0 0 0 1.062.61A5.435 5.435 0 0 1 28 11.595a5.435 5.435 0 0 1-5.172 5.426 1 1 0 0 0 .094 1.998A7.438 7.438 0 0 0 30 11.595a7.436 7.436 0 0 0-7.712-7.428A7.814 7.814 0 0 0 15.378 0c-3.607 0-6.646 2.451-7.542 5.776A6.678 6.678 0 0 0 0 12.351a6.679 6.679 0 0 0 6.676 6.676h.243a1 1 0 0 0 0-2Z" class="twr-icon-outline" fill="#2E5760"/></svg>