<svg viewBox="0 0 30 30" xmlns="http://www.w3.org/2000/svg" class="twr-icon"><path d="M22.656 20.27c1.179 1.189 2.407 2.714 2.407 4.083 0 1.368-1.079 2.479-2.407 2.479s-2.406-1.111-2.406-2.479c0-1.369 1.228-2.894 2.406-4.083Zm-6.781 0c1.179 1.189 2.406 2.714 2.406 4.083 0 1.368-1.078 2.479-2.406 2.479s-2.406-1.111-2.406-2.479c0-1.369 1.227-2.894 2.406-4.083Z" class="twr-icon-rain" fill="#09A8DD"/><path d="M11.932 12.375H6.129L1 21.45h4.28L3.421 29l9.829-10.973H8.53l3.402-5.652Z" class="twr-icon-lightning" fill="#F8D574"/><path d="M12.789 12.891a1.001 1.001 0 0 0-.857-1.516H6.129a.999.999 0 0 0-.87.508l-5.13 9.075A1 1 0 0 0 1 22.45h3.004L2.45 28.761a1 1 0 0 0 1.716.906l9.829-10.973a1 1 0 0 0-.745-1.667h-2.951l2.49-4.136Zm-2.626.484-2.489 4.136a.999.999 0 0 0 .856 1.516h2.482l-5.662 6.32.901-3.658a.997.997 0 0 0-.971-1.239H2.714l3.999-7.075h3.45Z" class="twr-icon-outline" fill="#2E5760"/><path d="M2.535 14.523a4.678 4.678 0 0 1 5.737-6.567 1.001 1.001 0 0 0 1.335-.825A5.814 5.814 0 0 1 15.378 2a5.817 5.817 0 0 1 5.377 3.604 1 1 0 0 0 1.062.61A5.435 5.435 0 0 1 28 11.595a5.435 5.435 0 0 1-5.432 5.432h-6.693a1 1 0 0 0 0 2h6.693A7.435 7.435 0 0 0 30 11.595a7.436 7.436 0 0 0-7.712-7.427A7.813 7.813 0 0 0 15.378 0c-3.607 0-6.646 2.451-7.542 5.777a6.679 6.679 0 0 0-7.071 9.678 1.001 1.001 0 0 0 1.77-.932Z" class="twr-icon-outline" fill="#2E5760"/></svg>