<svg viewBox="0 0 30 30" xmlns="http://www.w3.org/2000/svg" class="twr-icon"><path d="M15 18.221c1.308 1.281 2.67 2.924 2.67 4.397a2.67 2.67 0 0 1-5.34 0c0-1.473 1.362-3.116 2.67-4.397Z" class="twr-icon-rain" fill="#09A8DD"/><path d="M9.354 20.739H6.676A4.679 4.679 0 0 1 2 16.063a4.678 4.678 0 0 1 6.272-4.396.997.997 0 0 0 1.335-.824 5.813 5.813 0 0 1 5.771-5.131 5.818 5.818 0 0 1 5.377 3.603.998.998 0 0 0 1.062.61A5.435 5.435 0 0 1 28 15.306a5.435 5.435 0 0 1-5.432 5.433h-1.922a1 1 0 0 0 0 2h1.922A7.436 7.436 0 0 0 30 15.306a7.435 7.435 0 0 0-7.712-7.427 7.814 7.814 0 0 0-6.91-4.167c-3.607 0-6.646 2.451-7.542 5.776A6.68 6.68 0 0 0 0 16.063a6.68 6.68 0 0 0 6.676 6.676h2.678a1 1 0 0 0 0-2Z" class="twr-icon-outline" fill="#2E5760"/></svg>