<svg viewBox="0 0 30 30" xmlns="http://www.w3.org/2000/svg" class="twr-icon"><circle cx="14.955" cy="22.329" r="2.734" class="twr-icon-hail" fill="#09A8DD"/><path d="M9.17 20.963H6.676A4.678 4.678 0 0 1 2 16.288a4.678 4.678 0 0 1 6.272-4.396 1.001 1.001 0 0 0 1.335-.825 5.814 5.814 0 0 1 5.771-5.131 5.817 5.817 0 0 1 5.377 3.604 1 1 0 0 0 1.062.61A5.435 5.435 0 0 1 28 15.531a5.435 5.435 0 0 1-5.432 5.432H20.74a1.001 1.001 0 0 0 0 2h1.828A7.435 7.435 0 0 0 30 15.531a7.436 7.436 0 0 0-7.712-7.427 7.813 7.813 0 0 0-6.91-4.168c-3.607 0-6.646 2.451-7.542 5.777A6.679 6.679 0 0 0 0 16.288a6.678 6.678 0 0 0 6.676 6.675H9.17a1.001 1.001 0 0 0 0-2Z" class="twr-icon-outline" fill="#2E5760"/></svg>