<svg viewBox="0 0 30 30" xmlns="http://www.w3.org/2000/svg" class="twr-icon"><path d="m14.314 21.672-1.643-.533a.75.75 0 1 0-.463 1.426l1.643.534-1.016 1.398a.75.75 0 0 0 1.214.882l1.015-1.398 1.016 1.398a.75.75 0 0 0 1.213-.882l-1.015-1.398 1.643-.534a.75.75 0 1 0-.463-1.426l-1.644.533v-1.727a.75.75 0 0 0-1.5 0v1.727Z" class="twr-icon-snow" fill="#09A8DD"/><path d="M8.728 21.089H6.676A4.678 4.678 0 0 1 2 16.414a4.678 4.678 0 0 1 6.272-4.396 1 1 0 0 0 1.335-.824 5.814 5.814 0 0 1 5.771-5.132 5.817 5.817 0 0 1 5.377 3.604.998.998 0 0 0 1.062.61A5.435 5.435 0 0 1 28 15.657a5.435 5.435 0 0 1-5.432 5.432h-1.167a1 1 0 0 0 0 2h1.167A7.435 7.435 0 0 0 30 15.657a7.436 7.436 0 0 0-7.712-7.427 7.813 7.813 0 0 0-6.91-4.168c-3.607 0-6.646 2.451-7.542 5.777A6.679 6.679 0 0 0 0 16.414a6.678 6.678 0 0 0 6.676 6.675h2.052a1 1 0 0 0 0-2Z" class="twr-icon-outline" fill="#2E5760"/></svg>