<svg viewBox="0 0 30 30" xmlns="http://www.w3.org/2000/svg" class="twr-icon"><path d="M7.75 16.894a7.485 7.485 0 0 0-2.5 5.589c0 4.139 3.361 7.5 7.5 7.5 4.139 0 7.5-3.361 7.5-7.5a7.485 7.485 0 0 0-2.5-5.589V5.017c0-2.759-2.24-5-5-5s-5 2.241-5 5v11.877Zm1.616 1.254a1 1 0 0 0 .384-.787V5.017a3.001 3.001 0 0 1 6 0v12.344a1 1 0 0 0 .384.787 5.496 5.496 0 0 1 2.116 4.335c0 3.035-2.464 5.5-5.5 5.5a5.503 5.503 0 0 1-5.5-5.5c0-1.76.829-3.327 2.116-4.335Z" class="twr-icon-outline" fill="#2E5760"/><path d="M11.75 19.145V15a1 1 0 0 1 2 0v4.145a3.501 3.501 0 0 1-1 6.855 3.501 3.501 0 0 1-1-6.855Z" class="twr-icon-low-temp" fill="#0590E1" fill="#0590E1"/><path d="M23.75 5h-3a1 1 0 0 0 0 2h3a1 1 0 0 0 0-2ZM23.75 14h-3a1 1 0 0 0 0 2h3a1 1 0 0 0 0-2ZM23.75 9.5h-3a1 1 0 0 0 0 2h3a1 1 0 0 0 0-2Z" class="twr-icon-outline" fill="#2E5760"/></svg>