<svg viewBox="0 0 30 30" xmlns="http://www.w3.org/2000/svg" class="twr-icon"><path d="M2.341 14.675A6.787 6.787 0 0 1 1 10.614a6.825 6.825 0 0 1 12.865-3.177 9.452 9.452 0 0 0-6.208 5.076 8.319 8.319 0 0 0-5.316 2.162Z" class="twr-icon-sun" fill="#F8D574"/><path d="M9.004 14.595A6.354 6.354 0 0 0 1.6 20.859a6.354 6.354 0 0 0 6.351 6.351h14.984A7.068 7.068 0 0 0 30 20.145a7.068 7.068 0 0 0-7.295-7.061 7.425 7.425 0 0 0-6.548-3.928 7.43 7.43 0 0 0-7.153 5.439Zm.433 2.173a.997.997 0 0 0 1.335-.824 5.425 5.425 0 0 1 5.385-4.788 5.427 5.427 0 0 1 5.016 3.363c.174.421.61.672 1.062.61A5.066 5.066 0 0 1 28 20.145a5.067 5.067 0 0 1-5.065 5.065H7.951A4.353 4.353 0 0 1 3.6 20.859a4.353 4.353 0 0 1 5.837-4.091ZM1.634 15.399A7.791 7.791 0 0 1 0 10.614 7.828 7.828 0 0 1 7.825 2.79c3.111 0 5.8 1.819 7.061 4.452a9.348 9.348 0 0 0-1.996.497A5.823 5.823 0 0 0 2 10.614c0 1.284.416 2.471 1.12 3.434a8.362 8.362 0 0 0-1.486 1.351Z" class="twr-icon-outline" fill="#2E5760"/></svg>