<svg viewBox="0 0 30 30" xmlns="http://www.w3.org/2000/svg" class="twr-icon"><path d="M6.982 14.774c.258-.034.52-.056.785-.065A9.418 9.418 0 0 1 13.9 9.674a6.857 6.857 0 0 0-3.872-8.019A6.855 6.855 0 0 1 1 10.683a6.856 6.856 0 0 0 5.982 4.091Z" class="twr-icon-moon" fill="#F8D574"/><path d="M9.113 16.789a6.324 6.324 0 0 0-7.363 6.235 6.324 6.324 0 0 0 6.321 6.321H22.97c3.88 0 7.03-3.15 7.03-7.03a7.033 7.033 0 0 0-7.256-7.027 7.386 7.386 0 0 0-13.631 1.501Zm.433 2.173a1.001 1.001 0 0 0 1.335-.825 5.389 5.389 0 0 1 5.349-4.755 5.39 5.39 0 0 1 4.982 3.34c.174.421.611.672 1.062.61A5.033 5.033 0 0 1 28 22.315a5.033 5.033 0 0 1-5.03 5.03H8.071a4.323 4.323 0 0 1-4.321-4.321 4.323 4.323 0 0 1 5.796-4.062Zm-4.759-3.585a7.875 7.875 0 0 1-4.702-4.291 1 1 0 0 1 1.318-1.318 5.854 5.854 0 0 0 7.71-7.71A1.001 1.001 0 0 1 10.431.74a7.856 7.856 0 0 1 4.543 8.726 9.3 9.3 0 0 0-2.25.594c.259-.66.401-1.379.401-2.131 0-1.519-.58-2.904-1.531-3.944a7.855 7.855 0 0 1-8.264 8.264 5.826 5.826 0 0 0 5.013 1.433 9.374 9.374 0 0 0-.576 1.027 8.255 8.255 0 0 0-2.98.668Z" class="twr-icon-outline" fill="#2E5760"/></svg>