<svg viewBox="0 0 30 30" xmlns="http://www.w3.org/2000/svg" class="twr-icon"><path d="M10.993 21.999a6.241 6.241 0 0 1 4.361-2.846 6.884 6.884 0 0 1 5.162-3.266 10.675 10.675 0 0 0 1.043-4.618c0-4.388-2.64-8.165-6.417-9.828.581 1.32.904 2.78.904 4.315 0 5.923-4.808 10.731-10.731 10.731A10.67 10.67 0 0 1 1 15.583C2.663 19.361 6.439 22 10.828 22l.165-.001Z" class="twr-icon-moon" fill="#F8D574"/><path d="M16.629 21.101a4.238 4.238 0 0 0-4.595 4.221 4.239 4.239 0 0 0 4.236 4.237h9.062A4.67 4.67 0 0 0 30 24.891a4.67 4.67 0 0 0-4.578-4.667 4.882 4.882 0 0 0-4.189-2.374 4.89 4.89 0 0 0-4.604 3.251Zm.404 2.119c.288.104.607.071.868-.089.26-.161.432-.432.468-.736a2.884 2.884 0 0 1 5.532-.757.998.998 0 0 0 1.062.61 2.669 2.669 0 1 1 .369 5.311H16.27a2.237 2.237 0 1 1 .763-4.339Zm-6.55-.225c-4.649-.134-8.624-2.979-10.398-7.009a1 1 0 0 1 1.318-1.318 9.683 9.683 0 0 0 3.912.819c5.371 0 9.731-4.36 9.731-9.731a9.686 9.686 0 0 0-.819-3.912A1 1 0 0 1 15.545.526c4.129 1.817 7.014 5.946 7.014 10.743a11.69 11.69 0 0 1-.934 4.592 6.885 6.885 0 0 0-2.372.278 9.683 9.683 0 0 0 1.306-4.87 9.717 9.717 0 0 0-3.706-7.64h.001c.126.69.192 1.401.192 2.127 0 6.475-5.257 11.731-11.731 11.731-.726 0-1.437-.066-2.127-.192a9.717 9.717 0 0 0 8.637 3.655 6.26 6.26 0 0 0-1.342 2.045Z" class="twr-icon-outline" fill="#2E5760"/></svg>