<svg viewBox="0 0 30 30" xmlns="http://www.w3.org/2000/svg" class="twr-icon"><path d="M10.026 24.201C4.905 23.396.983 18.96.983 13.615.983 7.7 5.785 2.898 11.7 2.898c5.915 0 10.717 4.802 10.717 10.717 0 .287-.011.572-.034.853a6.89 6.89 0 0 0-7.037 3.215 6.247 6.247 0 0 0-5.32 6.518Z" class="twr-icon-sun" fill="#F8D574"/><path d="M16.621 19.631a4.245 4.245 0 0 0-4.604 4.228 4.245 4.245 0 0 0 4.243 4.243h9.081a4.678 4.678 0 0 0 4.676-4.675 4.678 4.678 0 0 0-4.587-4.675 4.89 4.89 0 0 0-4.197-2.379 4.897 4.897 0 0 0-4.612 3.258Zm.405 2.119a.997.997 0 0 0 1.335-.824 2.893 2.893 0 0 1 5.548-.76 1 1 0 0 0 1.062.61 2.677 2.677 0 0 1 3.046 2.651 2.676 2.676 0 0 1-2.676 2.675H16.26a2.244 2.244 0 1 1 .766-4.352Z" class="twr-icon-outline" fill="#2E5760"/><path d="M10.169 25.232C4.424 24.48-.017 19.562-.017 13.615c0-6.467 5.25-11.717 11.717-11.717 6.467 0 11.717 5.25 11.717 11.717 0 .369-.017.734-.051 1.095a6.88 6.88 0 0 0-1.978-.336c.019-.25.029-.504.029-.759 0-5.363-4.354-9.717-9.717-9.717s-9.717 4.354-9.717 9.717c0 4.801 3.49 8.794 8.069 9.577a6.206 6.206 0 0 0 .117 2.04Z" class="twr-icon-outline" fill="#2E5760"/></svg>