<svg viewBox="0 0 30 30" xmlns="http://www.w3.org/2000/svg" class="twr-icon"><path d="M3.552 15.398a4.523 4.523 0 0 1-2.546-4.067A4.523 4.523 0 0 1 7.07 7.082a5.428 5.428 0 0 1 5.388-4.791 5.428 5.428 0 0 1 5.018 3.363 5.125 5.125 0 0 1 5.709 6.186 9.36 9.36 0 0 0-6.962-3.093 9.389 9.389 0 0 0-8.462 5.326 8.281 8.281 0 0 0-4.209 1.325Z" class="twr-icon-overcast" fill="#E0EBF5"/><path d="M9.107 16.153a6.324 6.324 0 0 0-7.363 6.236 6.323 6.323 0 0 0 6.321 6.32h14.898a7.033 7.033 0 0 0 7.031-7.03 7.033 7.033 0 0 0-7.256-7.027 7.387 7.387 0 0 0-13.631 1.501Zm.433 2.173a.997.997 0 0 0 1.335-.824 5.387 5.387 0 0 1 10.331-1.416 1 1 0 0 0 1.062.61 5.033 5.033 0 0 1 5.726 4.983 5.033 5.033 0 0 1-5.031 5.03H8.065a4.323 4.323 0 0 1-4.321-4.32 4.323 4.323 0 0 1 5.796-4.063Z" class="twr-icon-outline" fill="#2E5760"/><path d="M2.67 16.055a5.52 5.52 0 0 1 3.634-10.19A6.426 6.426 0 0 1 18.08 4.606l.103-.001a6.126 6.126 0 0 1 5.797 8.1l-.108-.011a9.446 9.446 0 0 0-1.573-1.714 4.125 4.125 0 0 0-4.686-4.336 1 1 0 0 1-1.062-.61 4.427 4.427 0 0 0-4.093-2.743 4.427 4.427 0 0 0-4.395 3.906 1.001 1.001 0 0 1-1.335.824 3.522 3.522 0 0 0-4.722 3.31 3.525 3.525 0 0 0 2.729 3.431 8.319 8.319 0 0 0-2.065 1.293Z" class="twr-icon-outline" fill="#2E5760"/></svg>