<svg viewBox="0 0 30 30" xmlns="http://www.w3.org/2000/svg" class="twr-icon"><path d="M6.765 18.888a7.4 7.4 0 0 1 4.225-1.733 8.322 8.322 0 0 1 7.926-4.437A9.598 9.598 0 0 0 13.64.998a9.557 9.557 0 0 1 .808 3.856c0 5.294-4.298 9.592-9.592 9.592A9.557 9.557 0 0 1 1 13.638a9.633 9.633 0 0 0 5.765 5.25Z" class="twr-icon-moon" fill="#F8D574"/><path d="M12.308 19.185a5.437 5.437 0 0 0-6.183 5.383 5.437 5.437 0 0 0 5.434 5.434h12.416c3.325 0 6.025-2.7 6.025-6.025a6.028 6.028 0 0 0-6.116-6.025 6.32 6.32 0 0 0-5.526-3.252 6.329 6.329 0 0 0-6.05 4.485Zm.423 2.154a.997.997 0 0 0 .867-.089.995.995 0 0 0 .468-.735 4.323 4.323 0 0 1 8.29-1.136 1 1 0 0 0 1.062.61A4.028 4.028 0 0 1 28 23.977a4.027 4.027 0 0 1-4.025 4.025H11.559a3.436 3.436 0 0 1-3.434-3.434 3.435 3.435 0 0 1 4.606-3.229Zm-6.759-1.673a10.64 10.64 0 0 1-5.887-5.625 1 1 0 0 1 1.318-1.318 8.554 8.554 0 0 0 3.453.723c4.742 0 8.592-3.85 8.592-8.592a8.554 8.554 0 0 0-.723-3.453.998.998 0 0 1 1.318-1.318c3.727 1.641 6.332 5.368 6.332 9.699 0 1.065-.158 2.094-.451 3.065a8.332 8.332 0 0 0-2.063-.133 8.583 8.583 0 0 0 .514-2.932 8.576 8.576 0 0 0-3.054-6.567c.084.534.127 1.082.127 1.639 0 5.846-4.746 10.592-10.592 10.592-.557 0-1.105-.043-1.639-.127a8.596 8.596 0 0 0 4.597 2.827 7.473 7.473 0 0 0-1.842 1.52Z" class="twr-icon-outline" fill="#2E5760"/></svg>