<svg viewBox="0 0 30 30" xmlns="http://www.w3.org/2000/svg" class="twr-icon"><path d="M4.301 19.789A9.532 9.532 0 0 1 1 12.568c0-5.274 4.282-9.556 9.556-9.556 4.622 0 8.482 3.289 9.365 7.653a8.402 8.402 0 0 0-9.171 4.343 7.51 7.51 0 0 0-6.449 4.781Z" class="twr-icon-sun" fill="#F8D574"/><path d="M12.071 17.042A5.502 5.502 0 0 0 5.8 22.488c0 3.036 2.464 5.5 5.5 5.5h12.6c3.367 0 6.1-2.733 6.1-6.1 0-3.367-2.733-6.1-6.1-6.1l-.1.001a6.401 6.401 0 0 0-11.729 1.253Zm.424 2.155a1 1 0 0 0 1.335-.824 4.402 4.402 0 0 1 4.37-3.885 4.403 4.403 0 0 1 4.071 2.729c.174.421.61.672 1.062.61A4.102 4.102 0 0 1 28 21.888c0 2.263-1.837 4.1-4.1 4.1H11.3a3.501 3.501 0 0 1-3.5-3.5 3.501 3.501 0 0 1 4.695-3.291Z" class="twr-icon-outline" fill="#2E5760"/><path d="M3.985 20.827A10.54 10.54 0 0 1 0 12.568C0 6.742 4.73 2.012 10.556 2.012c5.28 0 9.66 3.886 10.434 8.951a8.38 8.38 0 0 0-2.127-.449c-.921-3.732-4.293-6.502-8.307-6.502C5.834 4.012 2 7.846 2 12.568a8.531 8.531 0 0 0 2.744 6.276 7.438 7.438 0 0 0-.759 1.983Z" class="twr-icon-outline" fill="#2E5760"/></svg>