<svg viewBox="0 0 30 30" xmlns="http://www.w3.org/2000/svg" class="twr-icon"><path d="M12.837 20.464a5 5 0 0 1-2.342-6.674 5.004 5.004 0 0 1 6.674-2.344c2.481 1.201 3.539 4.189 2.33 6.681a4.99 4.99 0 0 1-6.662 2.337Z" class="twr-icon-floral" fill="#F8D574"/><path d="M9.74 8.716c-.69-.39-1.412-.71-2.141-.947-3.032-.985-6.234.581-7.168 3.454-.933 2.872.737 6.022 3.769 7.007.729.237 1.501.403 2.288.492a11.75 11.75 0 0 0-1.562 1.743c-1.874 2.579-1.373 6.109 1.07 7.884 2.443 1.776 5.955 1.16 7.829-1.419.451-.62.847-1.303 1.175-2.024.328.721.724 1.404 1.175 2.024 1.874 2.579 5.386 3.195 7.829 1.419 2.443-1.775 2.944-5.305 1.07-7.884a11.75 11.75 0 0 0-1.562-1.743 11.666 11.666 0 0 0 2.288-.492c3.032-.985 4.702-4.135 3.769-7.007-.934-2.873-4.136-4.439-7.168-3.454-.729.237-1.451.557-2.141.947.159-.776.24-1.562.24-2.328 0-3.188-2.48-5.75-5.5-5.75S9.5 3.2 9.5 6.388c0 .766.081 1.552.24 2.328ZM9.717 18.8a10.184 10.184 0 0 0-3.173 2.84c-1.208 1.663-.948 3.947.628 5.091 1.575 1.145 3.827.686 5.035-.976a10.2 10.2 0 0 0 1.721-3.892 5.95 5.95 0 0 1-1.524-.498A5.973 5.973 0 0 1 9.717 18.8Zm10.563-.002a5.994 5.994 0 0 1-4.208 3.064 10.167 10.167 0 0 0 1.721 3.893c1.208 1.662 3.46 2.121 5.035.976 1.576-1.144 1.836-3.428.628-5.091a10.189 10.189 0 0 0-3.176-2.842Zm-7.008.766-.002-.001a4 4 0 0 1-1.874-5.339v-.001a4.004 4.004 0 0 1 5.34-1.875 4 4 0 0 1 1.863 5.343l-.001.003a3.991 3.991 0 0 1-5.326 1.87Zm-2.61-7.754a10.172 10.172 0 0 0-3.681-2.139c-1.954-.635-4.046.318-4.648 2.17-.601 1.851.531 3.852 2.485 4.487 1.319.429 2.824.599 4.237.433a5.96 5.96 0 0 1 .539-3.404 5.984 5.984 0 0 1 1.068-1.547Zm10.284 4.951a10.162 10.162 0 0 0 4.236-.433c1.954-.635 3.086-2.636 2.485-4.487-.602-1.852-2.694-2.805-4.648-2.17a10.165 10.165 0 0 0-3.68 2.138 6.016 6.016 0 0 1 1.607 4.952Zm-3.341-6.215a10.19 10.19 0 0 0 .895-4.158c0-2.055-1.553-3.75-3.5-3.75s-3.5 1.695-3.5 3.75c0 1.386.303 2.869.897 4.161a5.997 5.997 0 0 1 5.204-.005l.004.002Z" class="twr-icon-outline" fill="#2E5760"/></svg>