<svg viewBox="0 0 30 30" xmlns="http://www.w3.org/2000/svg" class="twr-icon"><path d="M19.257 16c.37 4.049 1.279 8.476 2.76 11.77.177.393.264.812.264 1.23h3.438c-1.643-3.656-2.458-8.996-2.458-13h-4.004ZM4.281 29h15c-2.149-4.78-3.214-11.764-3.214-17H7.495c0 5.236-1.066 12.22-3.214 17Z" class="twr-icon-funnel" fill="#E0EBF5"/><path d="M19.176 15h4.085a1 1 0 0 1 1 1c0 3.877.779 9.05 2.37 12.59a1 1 0 0 1-.912 1.41h-3.61a3.003 3.003 0 0 0 0-2h2.131c-1.2-3.323-1.855-7.526-1.963-11h-2.918a49.86 49.86 0 0 1-.183-2ZM14.687 3.505l-.001.051a1.001 1.001 0 0 1-.999.949c-.051 0-.102.004-.152.011-.05-.007-.1-.011-.152-.011a4.984 4.984 0 0 0-4.982 4.981 1 1 0 0 0 2 0 2.983 2.983 0 0 1 2.982-2.981.954.954 0 0 0 .152-.012c.05.008.101.012.152.012a3.001 3.001 0 0 0 .078-5.999l-.078-.001a1.001 1.001 0 0 0-.051 1.999l.103.002a1 1 0 0 1 .948.999Zm11.784-2v4.126a2.983 2.983 0 0 1-2.981 2.981 4.984 4.984 0 0 0-4.982 4.982 1 1 0 0 0 2 0 2.983 2.983 0 0 1 2.982-2.982 4.983 4.983 0 0 0 4.981-4.981V1.505a1 1 0 0 0-2 0Z" class="twr-icon-outline" fill="#2E5760"/><path d="M20.711 4.502h-.006a3.013 3.013 0 0 0-1.43.326 3.027 3.027 0 0 0-1.505 1.798 2.99 2.99 0 0 0-.129.816.999.999 0 0 0 1.93.425c.045-.113.067-.233.07-.354v-.026c.006-.522.415-.949.93-.985a3.002 3.002 0 0 0 3.07-2.997c0-1.656-1.345-3-3-3a1 1 0 0 0 0 2 1 1 0 0 1 .07 1.997ZM3.369 28.59A1 1 0 0 0 4.281 30h15a.999.999 0 0 0 .912-1.41c-2.096-4.665-3.126-11.481-3.126-16.59a1 1 0 0 0-1-1H7.495a1 1 0 0 0-1 1c0 5.109-1.03 11.925-3.126 16.59ZM5.774 28c1.692-4.469 2.595-10.287 2.709-15h6.596c.114 4.713 1.017 10.531 2.709 15H5.774Z" class="twr-icon-outline" fill="#2E5760"/></svg>