<svg viewBox="0 0 30 30" xmlns="http://www.w3.org/2000/svg" class="twr-icon"><path d="M7.439 7.802c2.664 2.609 5.438 5.955 5.438 8.957a5.441 5.441 0 0 1-5.438 5.439A5.441 5.441 0 0 1 2 16.759c0-3.002 2.775-6.348 5.439-8.957ZM21 13.387l-2.536-.824a1.502 1.502 0 0 0-1.891.963 1.501 1.501 0 0 0 .963 1.89l2.537.824-1.568 2.158a1.5 1.5 0 0 0 2.427 1.763l1.568-2.157 1.568 2.157a1.5 1.5 0 1 0 2.427-1.763l-1.568-2.158 2.537-.824a1.501 1.501 0 0 0 .963-1.89 1.502 1.502 0 0 0-1.891-.963L24 13.387V10.72a1.5 1.5 0 0 0-3 0v2.667Z" class="twr-icon-sleet" fill="#09A8DD"/></svg>