<svg viewBox="0 0 30 30" xmlns="http://www.w3.org/2000/svg" class="twr-icon"><path d="M11.268 18.213c1.308 1.281 2.67 2.924 2.67 4.397a2.67 2.67 0 0 1-5.34 0c0-1.473 1.362-3.116 2.67-4.397ZM17.937 21.352l-1.643-.534a.75.75 0 0 0-.464 1.427l1.644.534-1.016 1.397a.751.751 0 0 0 1.213.882l1.016-1.398 1.016 1.398a.75.75 0 1 0 1.213-.882l-1.015-1.397 1.643-.534a.75.75 0 0 0-.464-1.427l-1.643.534v-1.728a.75.75 0 0 0-1.5 0v1.728Z" class="twr-icon-sleet" fill="#09A8DD"/><path d="M5.819 20.668A4.679 4.679 0 0 1 2 16.071a4.678 4.678 0 0 1 6.272-4.396.997.997 0 0 0 1.335-.824 5.814 5.814 0 0 1 5.771-5.131 5.818 5.818 0 0 1 5.377 3.603.998.998 0 0 0 1.062.61A5.435 5.435 0 0 1 28 15.314a5.438 5.438 0 0 1-3.36 5.023 1 1 0 1 0 .764 1.848A7.439 7.439 0 0 0 30 15.314a7.435 7.435 0 0 0-7.712-7.427 7.814 7.814 0 0 0-6.91-4.167c-3.607 0-6.646 2.451-7.542 5.776A6.68 6.68 0 0 0 0 16.071a6.681 6.681 0 0 0 5.455 6.564 1 1 0 1 0 .364-1.967Z" class="twr-icon-outline" fill="#2E5760"/></svg>