<svg viewBox="0 0 30 30" xmlns="http://www.w3.org/2000/svg" class="twr-icon"><path d="m14.128 3.421-3.193-1.717a1 1 0 1 0-.947 1.761l4.14 2.227v2.054l-3.193-1.717a.997.997 0 0 0-1.473.849l-.112 3.629L7.571 9.48l.145-4.703a1 1 0 0 0-1.999-.062l-.112 3.631-2.098-1.212a1 1 0 0 0-1 1.732l2.099 1.212-3.083 1.91a1 1 0 0 0 1.054 1.7l3.995-2.475 1.779 1.027-3.083 1.91a1 1 0 0 0 0 1.7l3.082 1.91-1.778 1.027-3.995-2.475a1 1 0 0 0-1.054 1.7l3.083 1.91-2.099 1.212a1 1 0 0 0 1 1.732l2.098-1.212.112 3.629a1 1 0 0 0 1.999-.061l-.145-4.703 1.779-1.027.112 3.63a1 1 0 0 0 1.473.849l3.193-1.717v1.738l-4.14 2.228a1 1 0 0 0 .947 1.761l3.193-1.717V29a1 1 0 0 0 2 0v-2.738l3.206 1.72a1 1 0 0 0 .946-1.762l-4.152-2.228v-1.74l3.206 1.72a1 1 0 0 0 1.472-.85l.112-3.629 1.499.865-.145 4.706a1 1 0 0 0 1.999.062l.112-3.633 2.379 1.373a1 1 0 0 0 1-1.732l-2.374-1.37 3.088-1.909a1 1 0 0 0-1.052-1.701l-4.003 2.474-1.503-.868L25 15.85a1 1 0 0 0 0-1.7l-3.082-1.91 1.503-.868 4.003 2.473a1 1 0 0 0 1.052-1.701l-3.088-1.908 2.374-1.37a1 1 0 0 0-1-1.732l-2.379 1.373-.112-3.634a1 1 0 0 0-1.999.061l.145 4.708-1.499.865-.112-3.629a.997.997 0 0 0-1.472-.85l-3.206 1.72V5.692l4.151-2.226a1 1 0 0 0-.945-1.763l-3.206 1.72V1a1 1 0 0 0-2 0v2.421Zm1.481 6.876a1 1 0 0 1-.458.123h-.046a.997.997 0 0 1-.458-.124l-3.236-1.74-.113 3.675a.996.996 0 0 1-.122.458l-.002.003-.003.006-.003.006-.004.005-.003.007-.003.004-.003.006-.002.003a.994.994 0 0 1-.335.335L7.693 15l3.093 1.917a.996.996 0 0 1 .512.854l.113 3.673 3.236-1.74a.997.997 0 0 1 .458-.124h.046a1 1 0 0 1 .458.123l3.248 1.743.113-3.677a.985.985 0 0 1 .123-.458l.001-.003.004-.006.003-.006.003-.005.004-.007.002-.004.004-.006.002-.003c.086-.141.202-.254.335-.335L22.575 15l-3.124-1.936a.994.994 0 0 1-.335-.335l-.002-.003-.004-.006-.002-.005-.004-.006-.004-.006-.002-.005-.004-.006-.001-.003a.985.985 0 0 1-.123-.458l-.113-3.677-3.248 1.743Z" class="twr-icon-outline" fill="#2E5760"/></svg>