<svg viewBox="0 0 30 30" xmlns="http://www.w3.org/2000/svg" class="twr-icon"><path d="M5.513 21.5c.26-5.011 4.412-9 9.487-9s9.227 3.989 9.487 9H5.513Z" class="twr-icon-sun" fill="#F8D574"/><path d="M1.008 25.5h27.984a1 1 0 0 0 0-2H1.008a1 1 0 0 0 0 2ZM4 29.5h22a1 1 0 0 0 0-2H4a1 1 0 0 0 0 2ZM14 7.586l-2.085-2.085a.999.999 0 1 0-1.414 1.414l3.792 3.792a.965.965 0 0 0 .323.216l.003.002c.117.048.246.075.381.075h.02a.998.998 0 0 0 .711-.293l3.792-3.792a1 1 0 0 0-1.414-1.414L16 7.609V1.5a1 1 0 0 0-2 0v6.086ZM4.512 21.5c.261-5.563 4.86-10 10.488-10 5.628 0 10.227 4.437 10.488 10h-2.003c-.259-4.459-3.962-8-8.485-8s-8.226 3.541-8.485 8H4.512Z" class="twr-icon-outline" fill="#2E5760"/></svg>