<svg viewBox="0 0 30 30" xmlns="http://www.w3.org/2000/svg" class="twr-icon"><path d="M12.423 2.382a3.092 3.092 0 0 1 5.154 0 3.092 3.092 0 0 1 4.464 2.577 3.092 3.092 0 0 1 2.577 4.464 3.092 3.092 0 0 1 0 5.154 3.092 3.092 0 0 1-2.577 4.464 3.092 3.092 0 0 1-4.464 2.577 3.092 3.092 0 0 1-5.154 0 3.092 3.092 0 0 1-4.464-2.577 3.092 3.092 0 0 1-2.577-4.464 3.092 3.092 0 0 1 0-5.154 3.092 3.092 0 0 1 2.577-4.464 3.092 3.092 0 0 1 4.464-2.577Z" class="twr-icon-plant" fill="#92DBAE"/><path d="M12.106 1.199A4.081 4.081 0 0 0 9 1.608a4.081 4.081 0 0 0-1.907 2.485A4.081 4.081 0 0 0 4.608 6a4.081 4.081 0 0 0-.409 3.106A4.08 4.08 0 0 0 3 12a4.08 4.08 0 0 0 1.199 2.894A4.081 4.081 0 0 0 4.608 18a4.081 4.081 0 0 0 2.485 1.907A4.081 4.081 0 0 0 9 22.392c.978.565 2.094.68 3.106.409A4.08 4.08 0 0 0 15 24a4.08 4.08 0 0 0 2.894-1.199A4.081 4.081 0 0 0 21 22.392a4.081 4.081 0 0 0 1.907-2.485A4.081 4.081 0 0 0 25.392 18c.565-.978.68-2.094.409-3.106A4.08 4.08 0 0 0 27 12a4.08 4.08 0 0 0-1.199-2.894A4.081 4.081 0 0 0 25.392 6a4.081 4.081 0 0 0-2.485-1.907A4.081 4.081 0 0 0 21 1.608a4.081 4.081 0 0 0-3.106-.409A4.08 4.08 0 0 0 15 0a4.08 4.08 0 0 0-2.894 1.199Zm-.127 2.079a1 1 0 0 0 1.276-.341 2.093 2.093 0 0 1 3.49 0 1 1 0 0 0 1.276.341 2.095 2.095 0 0 1 3.022 1.745 1 1 0 0 0 .934.934 2.096 2.096 0 0 1 1.745 3.022 1 1 0 0 0 .341 1.276 2.093 2.093 0 0 1 0 3.49 1 1 0 0 0-.341 1.276 2.095 2.095 0 0 1-1.745 3.022 1 1 0 0 0-.934.934 2.096 2.096 0 0 1-3.022 1.745 1 1 0 0 0-1.276.341 2.093 2.093 0 0 1-3.49 0 1 1 0 0 0-1.276-.341 2.095 2.095 0 0 1-3.022-1.745 1 1 0 0 0-.934-.934 2.096 2.096 0 0 1-1.745-3.022 1 1 0 0 0-.341-1.276 2.093 2.093 0 0 1 0-3.49 1 1 0 0 0 .341-1.276 2.095 2.095 0 0 1 1.745-3.022 1 1 0 0 0 .934-.934 2.096 2.096 0 0 1 3.022-1.745Z" class="twr-icon-outline" fill="#2E5760"/><path d="m13.5 16.965-2.282-2.281a.999.999 0 1 0-1.414 1.414l3.696 3.696V28.5a1.5 1.5 0 0 0 3 0V16.659l3.696-3.696a1 1 0 0 0-1.414-1.415L16.5 13.83V12a1.5 1.5 0 0 0-3 0v4.965Z" class="twr-icon-outline" fill="#2E5760"/></svg>