<svg viewBox="0 0 30 30" xmlns="http://www.w3.org/2000/svg" class="twr-icon"><path d="M29 8c0-3.863-3.137-7-7-7H8C4.137 1 1 4.137 1 8v14c0 3.863 3.137 7 7 7h14c3.863 0 7-3.137 7-7V8Z" class="twr-icon-uvi-very-high" fill="#EF3340"/><path d="M30 8c0-4.415-3.585-8-8-8H8C3.585 0 0 3.585 0 8v14c0 4.415 3.585 8 8 8h14c4.415 0 8-3.585 8-8V8Zm-2 0v14c0 3.311-2.689 6-6 6H8c-3.311 0-6-2.689-6-6V8c0-3.311 2.689-6 6-6h14c3.311 0 6 2.689 6 6Z" class="twr-icon-outline" fill="#2E5760"/><path d="M5.2 21.24v-2.76h2.72v-6.56h-2.4V9.8c.72-.147 1.333-.313 1.84-.5.507-.187 1-.433 1.48-.74h2.52v9.92h2.28v2.76H5.2Zm14.88.24c-.707 0-1.347-.143-1.92-.43a4.217 4.217 0 0 1-1.49-1.27c-.42-.56-.743-1.253-.97-2.08-.227-.827-.34-1.78-.34-2.86 0-1.08.113-2.03.34-2.85.227-.82.55-1.5.97-2.04.42-.54.917-.947 1.49-1.22s1.213-.41 1.92-.41c.693 0 1.33.137 1.91.41a4.06 4.06 0 0 1 1.5 1.23c.42.547.743 1.227.97 2.04.227.813.34 1.76.34 2.84 0 1.08-.113 2.033-.34 2.86-.227.827-.55 1.52-.97 2.08-.42.56-.92.983-1.5 1.27-.58.287-1.217.43-1.91.43Zm0-2.64c.2 0 .39-.05.57-.15.18-.1.337-.297.47-.59.133-.293.24-.7.32-1.22.08-.52.12-1.2.12-2.04 0-.84-.04-1.513-.12-2.02-.08-.507-.187-.9-.32-1.18-.133-.28-.29-.463-.47-.55-.18-.087-.37-.13-.57-.13-.2 0-.39.043-.57.13-.18.087-.337.27-.47.55-.133.28-.24.673-.32 1.18-.08.507-.12 1.18-.12 2.02 0 .84.04 1.52.12 2.04.08.52.187.927.32 1.22.133.293.29.49.47.59.18.1.37.15.57.15Z" class="twr-icon-numeral-light"/></svg>