<svg viewBox="0 0 30 30" xmlns="http://www.w3.org/2000/svg" class="twr-icon"><path d="M29 8c0-3.863-3.137-7-7-7H8C4.137 1 1 4.137 1 8v14c0 3.863 3.137 7 7 7h14c3.863 0 7-3.137 7-7V8Z" class="twr-icon-uvi-extreme" fill="#9063CD"/><path d="M30 8c0-4.415-3.585-8-8-8H8C3.585 0 0 3.585 0 8v14c0 4.415 3.585 8 8 8h14c4.415 0 8-3.585 8-8V8Zm-2 0v14c0 3.311-2.689 6-6 6H8c-3.311 0-6-2.689-6-6V8c0-3.311 2.689-6 6-6h14c3.311 0 6 2.689 6 6Z" class="twr-icon-outline" fill="#2E5760"/><path d="M5.38 21.34v-2.76H8.1v-6.56H5.7V9.9c.72-.147 1.333-.313 1.84-.5.507-.187 1-.433 1.48-.74h2.52v9.92h2.28v2.76H5.38Zm10.8 0v-2.76h2.72v-6.56h-2.4V9.9c.72-.147 1.333-.313 1.84-.5.507-.187 1-.433 1.48-.74h2.52v9.92h2.28v2.76h-8.44Z" class="twr-icon-numeral-light"/></svg>