<svg viewBox="0 0 30 30" xmlns="http://www.w3.org/2000/svg" class="twr-icon"><path d="M29 8c0-3.863-3.137-7-7-7H8C4.137 1 1 4.137 1 8v14c0 3.863 3.137 7 7 7h14c3.863 0 7-3.137 7-7V8Z" class="twr-icon-uvi-low" fill="#97D700"/><path d="M30 8c0-4.415-3.585-8-8-8H8C3.585 0 0 3.585 0 8v14c0 4.415 3.585 8 8 8h14c4.415 0 8-3.585 8-8V8Zm-2 0v14c0 3.311-2.689 6-6 6H8c-3.311 0-6-2.689-6-6V8c0-3.311 2.689-6 6-6h14c3.311 0 6 2.689 6 6Z" class="twr-icon-outline" fill="#2E5760"/><path d="M10.13 21.36V19.4c.747-.693 1.443-1.347 2.09-1.96.647-.613 1.21-1.19 1.69-1.73s.857-1.053 1.13-1.54c.273-.487.41-.943.41-1.37 0-.573-.143-.997-.43-1.27-.287-.273-.663-.41-1.13-.41-.427 0-.803.123-1.13.37a9.101 9.101 0 0 0-.95.83l-1.84-1.84c.333-.347.66-.65.98-.91a4.97 4.97 0 0 1 1.01-.64c.353-.167.727-.29 1.12-.37.393-.08.823-.12 1.29-.12.64 0 1.227.1 1.76.3.533.2.993.48 1.38.84.387.36.687.797.9 1.31.213.513.32 1.083.32 1.71 0 .507-.11 1.023-.33 1.55a9.254 9.254 0 0 1-.85 1.57c-.347.52-.737 1.027-1.17 1.52-.433.493-.863.96-1.29 1.4.32-.04.683-.077 1.09-.11.407-.033.75-.05 1.03-.05h2.12v2.88h-9.2Z" class="twr-icon-numeral-dark"/></svg>