<svg viewBox="0 0 30 30" xmlns="http://www.w3.org/2000/svg" class="twr-icon"><path d="M29 8c0-3.863-3.137-7-7-7H8C4.137 1 1 4.137 1 8v14c0 3.863 3.137 7 7 7h14c3.863 0 7-3.137 7-7V8Z" class="twr-icon-uvi-moderate" fill="#F5E814"/><path d="M30 8c0-4.415-3.585-8-8-8H8C3.585 0 0 3.585 0 8v14c0 4.415 3.585 8 8 8h14c4.415 0 8-3.585 8-8V8Zm-2 0v14c0 3.311-2.689 6-6 6H8c-3.311 0-6-2.689-6-6V8c0-3.311 2.689-6 6-6h14c3.311 0 6 2.689 6 6Z" class="twr-icon-outline" fill="#2E5760"/><path d="M14.4 21.6c-1.04 0-1.933-.16-2.68-.48-.747-.32-1.36-.76-1.84-1.32l1.56-2.16c.387.36.803.65 1.25.87.447.22.897.33 1.35.33.56 0 1.007-.1 1.34-.3.333-.2.5-.5.5-.9 0-.24-.04-.453-.12-.64-.08-.187-.233-.347-.46-.48s-.547-.233-.96-.3c-.413-.067-.953-.1-1.62-.1v-2.4c.533 0 .977-.033 1.33-.1.353-.067.637-.163.85-.29.213-.127.363-.277.45-.45.087-.173.13-.373.13-.6 0-.773-.44-1.16-1.32-1.16-.427 0-.807.087-1.14.26-.333.173-.7.433-1.1.78l-1.72-2.08a7.996 7.996 0 0 1 1.94-1.21 5.454 5.454 0 0 1 2.18-.43c1.4 0 2.517.31 3.35.93.833.62 1.25 1.503 1.25 2.65 0 1.227-.68 2.14-2.04 2.74v.08c.72.227 1.307.59 1.76 1.09.453.5.68 1.15.68 1.95 0 .6-.133 1.13-.4 1.59-.267.46-.623.85-1.07 1.17-.447.32-.97.56-1.57.72-.6.16-1.227.24-1.88.24Z" class="twr-icon-numeral-dark"/></svg>