<svg viewBox="0 0 30 30" xmlns="http://www.w3.org/2000/svg" class="twr-icon"><path d="M29 8c0-3.863-3.137-7-7-7H8C4.137 1 1 4.137 1 8v14c0 3.863 3.137 7 7 7h14c3.863 0 7-3.137 7-7V8Z" class="twr-icon-uvi-moderate" fill="#F5E814"/><path d="M30 8c0-4.415-3.585-8-8-8H8C3.585 0 0 3.585 0 8v14c0 4.415 3.585 8 8 8h14c4.415 0 8-3.585 8-8V8Zm-2 0v14c0 3.311-2.689 6-6 6H8c-3.311 0-6-2.689-6-6V8c0-3.311 2.689-6 6-6h14c3.311 0 6 2.689 6 6Z" class="twr-icon-outline" fill="#2E5760"/><path d="M15.28 21.36v-2.84h-5.4v-2.4l4.32-7.44h4.28v7.24h1.36v2.6h-1.36v2.84h-3.2Zm-2.16-5.44h2.16v-1.44a36.357 36.357 0 0 1 .04-1.5l.04-.79c.013-.26.027-.497.04-.71h-.08c-.16.387-.327.767-.5 1.14-.173.373-.353.753-.54 1.14l-1.16 2.16Z" class="twr-icon-numeral-dark"/></svg>