<svg viewBox="0 0 30 30" xmlns="http://www.w3.org/2000/svg" class="twr-icon"><path d="M29 8c0-3.863-3.137-7-7-7H8C4.137 1 1 4.137 1 8v14c0 3.863 3.137 7 7 7h14c3.863 0 7-3.137 7-7V8Z" class="twr-icon-uvi-moderate" fill="#F5E814"/><path d="M30 8c0-4.415-3.585-8-8-8H8C3.585 0 0 3.585 0 8v14c0 4.415 3.585 8 8 8h14c4.415 0 8-3.585 8-8V8Zm-2 0v14c0 3.311-2.689 6-6 6H8c-3.311 0-6-2.689-6-6V8c0-3.311 2.689-6 6-6h14c3.311 0 6 2.689 6 6Z" class="twr-icon-outline" fill="#2E5760"/><path d="M14.52 21.6c-1.04 0-1.937-.17-2.69-.51-.753-.34-1.39-.77-1.91-1.29l1.52-2.16c.387.347.793.633 1.22.86.427.227.873.34 1.34.34.6 0 1.063-.133 1.39-.4.327-.267.49-.68.49-1.24 0-.547-.16-.957-.48-1.23-.32-.273-.733-.41-1.24-.41-.173 0-.327.01-.46.03a2.336 2.336 0 0 0-.8.27c-.147.08-.313.18-.5.3l-1.48-.96.32-6.52h7.52v2.88H14.2l-.16 1.84c.227-.08.43-.133.61-.16a5.022 5.022 0 0 1 2.15.2c.493.16.927.4 1.3.72.373.32.67.727.89 1.22.22.493.33 1.073.33 1.74 0 .707-.13 1.34-.39 1.9-.26.56-.61 1.03-1.05 1.41-.44.38-.95.67-1.53.87-.58.2-1.19.3-1.83.3Z" class="twr-icon-numeral-dark"/></svg>