<svg viewBox="0 0 30 30" xmlns="http://www.w3.org/2000/svg" class="twr-icon"><path d="M29 8c0-3.863-3.137-7-7-7H8C4.137 1 1 4.137 1 8v14c0 3.863 3.137 7 7 7h14c3.863 0 7-3.137 7-7V8Z" class="twr-icon-uvi-high" fill="#FF8200"/><path d="M30 8c0-4.415-3.585-8-8-8H8C3.585 0 0 3.585 0 8v14c0 4.415 3.585 8 8 8h14c4.415 0 8-3.585 8-8V8Zm-2 0v14c0 3.311-2.689 6-6 6H8c-3.311 0-6-2.689-6-6V8c0-3.311 2.689-6 6-6h14c3.311 0 6 2.689 6 6Z" class="twr-icon-outline" fill="#2E5760"/><path d="M15.2 21.48a4.914 4.914 0 0 1-1.81-.35 4.277 4.277 0 0 1-1.59-1.11c-.467-.507-.843-1.163-1.13-1.97-.287-.807-.43-1.783-.43-2.93 0-1.147.147-2.147.44-3 .293-.853.68-1.56 1.16-2.12a4.68 4.68 0 0 1 1.67-1.26c.633-.28 1.29-.42 1.97-.42.907 0 1.687.16 2.34.48.653.32 1.193.693 1.62 1.12l-1.8 2.04c-.2-.227-.48-.43-.84-.61s-.72-.27-1.08-.27c-.307 0-.597.057-.87.17a1.745 1.745 0 0 0-.72.58c-.207.273-.373.627-.5 1.06-.127.433-.21.97-.25 1.61a3.447 3.447 0 0 1 1.81-1.18c.207-.053.397-.08.57-.08a4.88 4.88 0 0 1 1.51.23c.473.153.88.39 1.22.71.34.32.61.727.81 1.22.2.493.3 1.08.3 1.76 0 .68-.117 1.287-.35 1.82-.233.533-.55.987-.95 1.36-.4.373-.867.657-1.4.85-.533.193-1.1.29-1.7.29Zm-.08-2.56c.36 0 .677-.127.95-.38.273-.253.41-.713.41-1.38 0-.307-.04-.557-.12-.75a1.238 1.238 0 0 0-.31-.46 1.1 1.1 0 0 0-.45-.24 1.979 1.979 0 0 0-.52-.07c-.307 0-.603.083-.89.25-.287.167-.53.443-.73.83.067.44.163.803.29 1.09.127.287.263.513.41.68.147.167.303.28.47.34.167.06.33.09.49.09Z" class="twr-icon-numeral-light"/></svg>