<svg viewBox="0 0 30 30" xmlns="http://www.w3.org/2000/svg" class="twr-icon"><path d="M29 8c0-3.863-3.137-7-7-7H8C4.137 1 1 4.137 1 8v14c0 3.863 3.137 7 7 7h14c3.863 0 7-3.137 7-7V8Z" class="twr-icon-uvi-high" fill="#FF8200"/><path d="M30 8c0-4.415-3.585-8-8-8H8C3.585 0 0 3.585 0 8v14c0 4.415 3.585 8 8 8h14c4.415 0 8-3.585 8-8V8Zm-2 0v14c0 3.311-2.689 6-6 6H8c-3.311 0-6-2.689-6-6V8c0-3.311 2.689-6 6-6h14c3.311 0 6 2.689 6 6Z" class="twr-icon-outline" fill="#2E5760"/><path d="M12.6 21.34c.053-1 .147-1.92.28-2.76.133-.84.323-1.647.57-2.42.247-.773.567-1.533.96-2.28.393-.747.883-1.527 1.47-2.34h-5.44V8.66h9.08v2.12c-.733.853-1.313 1.653-1.74 2.4-.427.747-.76 1.517-1 2.31-.24.793-.41 1.657-.51 2.59-.1.933-.177 2.02-.23 3.26H12.6Z" class="twr-icon-numeral-light"/></svg>