<svg viewBox="0 0 30 30" xmlns="http://www.w3.org/2000/svg" class="twr-icon"><path d="M29 8c0-3.863-3.137-7-7-7H8C4.137 1 1 4.137 1 8v14c0 3.863 3.137 7 7 7h14c3.863 0 7-3.137 7-7V8Z" class="twr-icon-uvi-very-high" fill="#EF3340"/><path d="M30 8c0-4.415-3.585-8-8-8H8C3.585 0 0 3.585 0 8v14c0 4.415 3.585 8 8 8h14c4.415 0 8-3.585 8-8V8Zm-2 0v14c0 3.311-2.689 6-6 6H8c-3.311 0-6-2.689-6-6V8c0-3.311 2.689-6 6-6h14c3.311 0 6 2.689 6 6Z" class="twr-icon-outline" fill="#2E5760"/><path d="M14.84 21.48c-.64 0-1.237-.083-1.79-.25a4.55 4.55 0 0 1-1.44-.71 3.32 3.32 0 0 1-.95-1.1c-.227-.427-.34-.9-.34-1.42 0-.747.197-1.353.59-1.82.393-.467.89-.86 1.49-1.18v-.08a5.174 5.174 0 0 1-1.22-1.29c-.307-.473-.46-1.043-.46-1.71 0-.56.103-1.063.31-1.51.207-.447.5-.823.88-1.13.38-.307.827-.543 1.34-.71a5.504 5.504 0 0 1 1.71-.25c.587 0 1.123.083 1.61.25.487.167.903.4 1.25.7.347.3.617.67.81 1.11.193.44.29.927.29 1.46 0 .587-.157 1.103-.47 1.55a4.132 4.132 0 0 1-1.15 1.11v.08a4.83 4.83 0 0 1 1.56 1.29c.413.527.62 1.21.62 2.05 0 .507-.11.977-.33 1.41-.22.433-.533.81-.94 1.13-.407.32-.897.57-1.47.75a6.32 6.32 0 0 1-1.9.27Zm.76-7.8c.373-.533.56-1.067.56-1.6 0-.44-.113-.783-.34-1.03-.227-.247-.54-.37-.94-.37-.307 0-.577.097-.81.29-.233.193-.35.51-.35.95 0 .427.163.767.49 1.02.327.253.79.5 1.39.74Zm-.68 5.44c.387 0 .713-.1.98-.3.267-.2.4-.54.4-1.02 0-.227-.053-.427-.16-.6a1.58 1.58 0 0 0-.47-.47 5.127 5.127 0 0 0-.75-.41c-.293-.133-.627-.28-1-.44-.187.227-.343.49-.47.79-.127.3-.19.61-.19.93 0 .507.167.887.5 1.14.333.253.72.38 1.16.38Z" class="twr-icon-numeral-light"/></svg>