<svg viewBox="0 0 30 30" xmlns="http://www.w3.org/2000/svg" class="twr-icon"><path d="M29 8c0-3.863-3.137-7-7-7H8C4.137 1 1 4.137 1 8v14c0 3.863 3.137 7 7 7h14c3.863 0 7-3.137 7-7V8Z" class="twr-icon-uvi-very-high" fill="#EF3340"/><path d="M30 8c0-4.415-3.585-8-8-8H8C3.585 0 0 3.585 0 8v14c0 4.415 3.585 8 8 8h14c4.415 0 8-3.585 8-8V8Zm-2 0v14c0 3.311-2.689 6-6 6H8c-3.311 0-6-2.689-6-6V8c0-3.311 2.689-6 6-6h14c3.311 0 6 2.689 6 6Z" class="twr-icon-outline" fill="#2E5760"/><path d="M14.64 14.16c.307 0 .603-.083.89-.25.287-.167.53-.443.73-.83-.067-.44-.163-.803-.29-1.09a2.652 2.652 0 0 0-.41-.68 1.154 1.154 0 0 0-.47-.34c-.167-.06-.33-.09-.49-.09-.36 0-.677.127-.95.38-.273.253-.41.713-.41 1.38 0 .307.04.557.12.75.08.193.183.347.31.46a1.1 1.1 0 0 0 .44.24c.167.047.343.07.53.07Zm-.4 7.32c-.907 0-1.687-.16-2.34-.48-.653-.32-1.193-.693-1.62-1.12l1.8-2.04c.2.227.48.43.84.61s.72.27 1.08.27c.32 0 .613-.057.88-.17.267-.113.503-.307.71-.58.207-.273.377-.627.51-1.06.133-.433.213-.97.24-1.61a3.447 3.447 0 0 1-1.81 1.18c-.207.053-.397.08-.57.08a4.853 4.853 0 0 1-1.52-.23 3.188 3.188 0 0 1-1.21-.71c-.34-.32-.61-.727-.81-1.22-.2-.493-.3-1.08-.3-1.76 0-.68.117-1.287.35-1.82.233-.533.55-.987.95-1.36.4-.373.867-.657 1.4-.85.533-.193 1.1-.29 1.7-.29.613 0 1.217.117 1.81.35a4.277 4.277 0 0 1 1.59 1.11c.467.507.843 1.163 1.13 1.97.287.807.43 1.783.43 2.93 0 1.147-.147 2.147-.44 3-.293.853-.68 1.56-1.16 2.12a4.68 4.68 0 0 1-1.67 1.26c-.633.28-1.29.42-1.97.42Z" class="twr-icon-numeral-light"/></svg>