<svg viewBox="0 0 30 30" xmlns="http://www.w3.org/2000/svg" class="twr-icon"><path d="M13.775 11.662a2.833 2.833 0 0 1 2.454-5.107 2.832 2.832 0 0 1 1.319 3.784 2.826 2.826 0 0 1-3.773 1.323Z" class="twr-icon-floral" fill="#F8D574"/><path d="M15.107 26.357c-2.487 1.288-7.096.139-10.586-1.875C1.745 22.878.313 20.153 1.325 18.4c1.012-1.754 4.089-1.876 6.865-.273 3.49 2.014 6.789 5.432 6.917 8.23Z" class="twr-icon-plant" fill="#92DBAE"/><path d="M14.893 26.357c2.487 1.288 7.096.139 10.586-1.875 2.776-1.604 4.208-4.329 3.196-6.082-1.012-1.754-4.089-1.876-6.865-.273-3.49 2.014-6.789 5.432-6.917 8.23Z" class="twr-icon-plant" fill="#92DBAE"/><path d="M13.893 16.387v5.173c-1.37-1.636-3.257-3.176-5.203-4.299-1.901-1.098-3.932-1.456-5.497-1.159-1.226.232-2.191.857-2.734 1.798-.543.94-.602 2.088-.19 3.266.525 1.504 1.851 3.084 3.752 4.182 2.213 1.277 4.854 2.219 7.179 2.479.963.108 1.875.096 2.693-.044v1.25a1 1 0 0 0 2 0v-1.289c.872.176 1.859.2 2.907.083 2.325-.26 4.966-1.202 7.179-2.479 1.901-1.098 3.227-2.678 3.752-4.182.412-1.178.353-2.326-.19-3.266-.543-.941-1.508-1.566-2.734-1.798-1.565-.297-3.596.061-5.497 1.159-2.049 1.183-4.033 2.828-5.417 4.56v-5.607c1.262 1.103 3.115 1.243 4.461.265 1.572-1.142 1.908-3.412.702-5.071a6.466 6.466 0 0 0-.354-.446 6.5 6.5 0 0 0 .548-.152c1.951-.634 3.014-2.667 2.413-4.516-.6-1.848-2.655-2.868-4.606-2.234a6.36 6.36 0 0 0-.533.199c.016-.191.025-.381.025-.569C18.549 1.639 16.943 0 15 0c-1.943 0-3.549 1.639-3.549 3.69 0 .188.009.378.025.569a6.36 6.36 0 0 0-.533-.199c-1.951-.634-4.006.386-4.606 2.234-.601 1.849.462 3.882 2.413 4.516a6.5 6.5 0 0 0 .548.152 6.466 6.466 0 0 0-.354.446c-1.206 1.659-.87 3.929.702 5.071 1.272.924 2.997.85 4.247-.092Zm0 8.968v.394c-.719.181-1.566.192-2.47.091-2.075-.232-4.427-1.085-6.402-2.224-1.43-.826-2.469-1.978-2.864-3.11-.202-.578-.233-1.144.034-1.606.267-.463.772-.719 1.375-.833 1.177-.224 2.694.1 4.124.926 1.975 1.14 3.889 2.751 5.127 4.431.476.646.854 1.297 1.076 1.931Zm2.151.377c.733.197 1.603.212 2.533.108 2.075-.232 4.427-1.085 6.402-2.224 1.43-.826 2.469-1.978 2.864-3.11.202-.578.233-1.144-.034-1.606-.267-.463-.772-.719-1.375-.833-1.177-.224-2.694.1-4.124.926-1.975 1.14-3.889 2.751-5.127 4.431-.542.736-.957 1.478-1.159 2.194l.02.114Zm2.091-14.422a3.822 3.822 0 0 1-2.01 1.463c.174.587.461 1.154.807 1.631.54.743 1.543.968 2.247.457.704-.512.799-1.535.259-2.278a5.476 5.476 0 0 0-1.303-1.273Zm-6.272.001a5.463 5.463 0 0 0-1.301 1.272c-.54.743-.445 1.766.259 2.278.704.511 1.707.286 2.247-.457a5.477 5.477 0 0 0 .807-1.631 3.828 3.828 0 0 1-2.012-1.462Zm2.347-.549-.002-.001a1.832 1.832 0 0 1-.858-2.445 1.834 1.834 0 0 1 2.445-.86 1.831 1.831 0 0 1 .853 2.446l-.001.003a1.826 1.826 0 0 1-2.437.857Zm4.621-1.59a5.489 5.489 0 0 0 1.801-.264c.874-.284 1.398-1.168 1.129-1.996-.268-.827-1.212-1.234-2.086-.95a5.466 5.466 0 0 0-1.611.844c.508.68.781 1.514.767 2.366Zm-6.894-2.365a5.463 5.463 0 0 0-1.612-.845c-.874-.284-1.818.123-2.086.95-.269.828.255 1.712 1.129 1.996.56.182 1.188.279 1.801.264a3.818 3.818 0 0 1 .768-2.365Zm4.307-1.324a5.466 5.466 0 0 0 .305-1.793C16.549 2.772 15.87 2 15 2c-.87 0-1.549.772-1.549 1.69 0 .59.102 1.217.305 1.794a3.821 3.821 0 0 1 2.488-.001Z" class="twr-icon-outline" fill="#2E5760"/></svg>