<svg viewBox="0 0 30 30" xmlns="http://www.w3.org/2000/svg" class="twr-icon"><path d="M1 16.595h21.264c2.373 0 4.294 1.957 4.294 4.36a4.383 4.383 0 0 1-1.251 3.074 1 1 0 1 0 1.429 1.399 6.374 6.374 0 0 0 1.822-4.473c0-3.513-2.824-6.36-6.294-6.36H1a1.001 1.001 0 0 0 0 2ZM2.445 12.427h23.026c2.496 0 4.529-2.046 4.529-4.573 0-2.527-2.033-4.573-4.529-4.573a4.495 4.495 0 0 0-3.22 1.358 1 1 0 0 0 1.429 1.399 2.503 2.503 0 0 1 1.791-.757C26.87 5.281 28 6.437 28 7.854s-1.13 2.573-2.529 2.573H2.445a1 1 0 0 0 0 2Z" class="twr-icon-outline" fill="#2E5760"/><path d="M7.347 20.764h12.439c1.075 0 1.941.889 1.941 1.977s-.866 1.978-1.941 1.978a1.919 1.919 0 0 1-1.373-.581 1 1 0 1 0-1.428 1.4 3.91 3.91 0 0 0 2.801 1.181c2.172 0 3.941-1.779 3.941-3.978 0-2.198-1.769-3.977-3.941-3.977H7.347a1 1 0 0 0 0 2Z" class="twr-icon-outline" fill="#2E5760"/></svg>